<?xml version="1.0" encoding="utf-8"?>
<!-- Svg Vector Icons : http://www.onlinewebfonts.com/icon -->
<!DOCTYPE svg PUBLIC "-//W3C//DTD SVG 1.1//EN" "http://www.w3.org/Graphics/SVG/1.1/DTD/svg11.dtd">
<svg version="1.1" xmlns="http://www.w3.org/2000/svg" xmlns:xlink="http://www.w3.org/1999/xlink" x="0px" y="0px" viewBox="0 0 1000 1000" enable-background="new 0 0 1000 1000" xml:space="preserve">
<metadata> Svg Vector Icons : http://www.onlinewebfonts.com/icon </metadata>
<g><path d="M284.6,697.9c-44-24.7-88.2-8.7-109.8,11.6c-21.7,20.2-36.1,66.5-60.7,109.9C89.5,862.7,10,943.6,10,943.6s80.8,4.7,124.3,0c79.5-8.7,138.8-43.4,161.9-75.2c23.1-31.8,26-75.2,26-75.2S335.2,726.3,284.6,697.9z"/><path d="M371.3,538.9l114.2,124.3l-135.9,80.9l-72.3-89.6L371.3,538.9z"/><path d="M987.1,56.2C962.5,33,685.7,224.5,624.1,275.7c-74.4,61.8-242.7,241.6-242.7,241.6l125.7,133c0,0,158.6-114.3,269.4-237.8C875.8,301.9,1011.7,79.3,987.1,56.2z"/></g>
</svg>